<svg width="20" height="20" viewBox="0 0 20 20" fill="none" xmlns="http://www.w3.org/2000/svg">
<path fill-rule="evenodd" clip-rule="evenodd" d="M6 5H4.19306C5.55354 3.0787 7.60638 2 10 2C14.4183 2 18 5.58172 18 10H20C20 4.47715 15.5228 0 10 0C7.19577 0 4.72511 1.18251 3 3.27035V2H1V7H6V5ZM14 15H15.8069C14.4465 16.9213 12.3936 18 10 18C5.58172 18 2 14.4183 2 10H0C0 15.5228 4.47715 20 10 20C12.8042 20 15.2749 18.8175 17 16.7297V18H19V13H14V15ZM10.0003 13.9983C10.5528 13.9983 11.0007 13.5506 11.0007 12.9983C11.0007 12.4461 10.5528 11.9983 10.0003 11.9983C9.44786 11.9983 9 12.4461 9 12.9983C9 13.5506 9.44786 13.9983 10.0003 13.9983ZM11.0036 4.99835H9.00295V10.9983H11.0036V4.99835Z" fill="black"/>
</svg>
